<?xml version="1.0" encoding="UTF-8" standalone="no"?>
<!-- Created with Inkscape (http://www.inkscape.org/) -->

<svg
   version="1.1"
   id="svg18"
   width="649.2583"
   height="444.00461"
   viewBox="0 0 649.2583 444.00461"
   sodipodi:docname="robot_stats.svg"
   inkscape:version="1.2.2 (b0a8486541, 2022-12-01)"
   xmlns:inkscape="http://www.inkscape.org/namespaces/inkscape"
   xmlns:sodipodi="http://sodipodi.sourceforge.net/DTD/sodipodi-0.dtd"
   xmlns="http://www.w3.org/2000/svg"
   xmlns:svg="http://www.w3.org/2000/svg">
  <defs
     id="defs22">
    <clipPath
       clipPathUnits="userSpaceOnUse"
       id="clipPath38">
      <path
         d="M 55.434375,84.322563 H 441.08438 V 303.85034 H 55.434375 Z"
         id="path36" />
    </clipPath>
    <clipPath
       clipPathUnits="userSpaceOnUse"
       id="clipPath56">
      <path
         d="M 55.434375,84.322563 H 441.08438 V 303.85034 H 55.434375 Z"
         id="path54" />
    </clipPath>
    <clipPath
       clipPathUnits="userSpaceOnUse"
       id="clipPath74">
      <path
         d="M 55.434375,84.322563 H 441.08438 V 303.85034 H 55.434375 Z"
         id="path72" />
    </clipPath>
    <clipPath
       clipPathUnits="userSpaceOnUse"
       id="clipPath92">
      <path
         d="M 55.434375,84.322563 H 441.08438 V 303.85034 H 55.434375 Z"
         id="path90" />
    </clipPath>
    <clipPath
       clipPathUnits="userSpaceOnUse"
       id="clipPath110">
      <path
         d="M 55.434375,84.322563 H 441.08438 V 303.85034 H 55.434375 Z"
         id="path108" />
    </clipPath>
    <clipPath
       clipPathUnits="userSpaceOnUse"
       id="clipPath128">
      <path
         d="M 55.434375,84.322563 H 441.08438 V 303.85034 H 55.434375 Z"
         id="path126" />
    </clipPath>
    <clipPath
       clipPathUnits="userSpaceOnUse"
       id="clipPath146">
      <path
         d="M 55.434375,84.322563 H 441.08438 V 303.85034 H 55.434375 Z"
         id="path144" />
    </clipPath>
    <clipPath
       clipPathUnits="userSpaceOnUse"
       id="clipPath170">
      <path
         d="M 55.434375,84.322563 H 441.08438 V 303.85034 H 55.434375 Z"
         id="path168" />
    </clipPath>
    <clipPath
       clipPathUnits="userSpaceOnUse"
       id="clipPath188">
      <path
         d="M 55.434375,84.322563 H 441.08438 V 303.85034 H 55.434375 Z"
         id="path186" />
    </clipPath>
    <clipPath
       clipPathUnits="userSpaceOnUse"
       id="clipPath206">
      <path
         d="M 55.434375,84.322563 H 441.08438 V 303.85034 H 55.434375 Z"
         id="path204" />
    </clipPath>
    <clipPath
       clipPathUnits="userSpaceOnUse"
       id="clipPath224">
      <path
         d="M 55.434375,84.322563 H 441.08438 V 303.85034 H 55.434375 Z"
         id="path222" />
    </clipPath>
    <clipPath
       clipPathUnits="userSpaceOnUse"
       id="clipPath242">
      <path
         d="M 55.434375,84.322563 H 441.08438 V 303.85034 H 55.434375 Z"
         id="path240" />
    </clipPath>
    <clipPath
       clipPathUnits="userSpaceOnUse"
       id="clipPath266">
      <path
         d="M 55.434375,84.322563 H 441.08438 V 303.85034 H 55.434375 Z"
         id="path264" />
    </clipPath>
  </defs>
  <sodipodi:namedview
     id="namedview20"
     pagecolor="#ffffff"
     bordercolor="#000000"
     borderopacity="0.25"
     inkscape:showpageshadow="2"
     inkscape:pageopacity="0.0"
     inkscape:pagecheckerboard="0"
     inkscape:deskcolor="#d1d1d1"
     showgrid="false"
     inkscape:zoom="0.53152602"
     inkscape:cx="325.47795"
     inkscape:cy="222.0023"
     inkscape:window-width="1920"
     inkscape:window-height="1115"
     inkscape:window-x="0"
     inkscape:window-y="0"
     inkscape:window-maximized="1"
     inkscape:current-layer="g26">
    <inkscape:page
       x="0"
       y="0"
       id="page24"
       width="649.2583"
       height="444.00461" />
  </sodipodi:namedview>
  <g
     id="g26"
     inkscape:groupmode="layer"
     inkscape:label="Page 1"
     transform="matrix(1.3333333,0,0,-1.3333333,0,444.00461)">
    <path
       d="M 0,0 H 486.94375 V 333.00346 H 0 Z"
       style="fill:#ffffff;fill-opacity:1;fill-rule:nonzero;stroke:none"
       id="path28" />
    <path
       d="M 55.434375,84.322563 H 441.08437 V 303.85033 H 55.434375 Z"
       style="fill:#ffffff;fill-opacity:1;fill-rule:nonzero;stroke:none"
       id="path30" />
    <g
       id="g32">
      <g
         id="g34"
         clip-path="url(#clipPath38)">
        <path
           d="M 91.594355,84.322563 V 303.85033"
           style="fill:none;stroke:#cccccc;stroke-width:1;stroke-linecap:round;stroke-linejoin:round;stroke-miterlimit:10;stroke-dasharray:none;stroke-opacity:1"
           id="path40" />
      </g>
    </g>
    <g
       id="g42">
      <g
         id="g44"
         transform="rotate(30,-43.221855,73.624191)">
        <text
           xml:space="preserve"
           transform="scale(1,-1)"
           style="font-variant:normal;font-weight:normal;font-size:14.4px;font-family:'DejaVu Sans';-inkscape-font-specification:DejaVuSans;writing-mode:lr-tb;fill:#262626;fill-opacity:1;fill-rule:nonzero;stroke:none"
           id="text48"><tspan
             x="0 12.4272 21.2544 27.1728 31.752001 40.9104 50.068802 59.2272"
             y="0"
             sodipodi:role="line"
             id="tspan46">Mar 2023</tspan></text>
      </g>
    </g>
    <g
       id="g50">
      <g
         id="g52"
         clip-path="url(#clipPath56)">
        <path
           d="M 144.09831,84.322563 V 303.85033"
           style="fill:none;stroke:#cccccc;stroke-width:1;stroke-linecap:round;stroke-linejoin:round;stroke-miterlimit:10;stroke-dasharray:none;stroke-opacity:1"
           id="path58" />
      </g>
    </g>
    <g
       id="g60">
      <g
         id="g62"
         transform="rotate(30,-18.102691,175.82561)">
        <text
           xml:space="preserve"
           transform="scale(1,-1)"
           style="font-variant:normal;font-weight:normal;font-size:14.4px;font-family:'DejaVu Sans';-inkscape-font-specification:DejaVuSans;writing-mode:lr-tb;fill:#262626;fill-opacity:1;fill-rule:nonzero;stroke:none"
           id="text66"><tspan
             x="0 9.8495998 18.993601 24.912001 29.491199 38.649601 47.807999 56.9664"
             y="0"
             sodipodi:role="line"
             id="tspan64">Apr 2023</tspan></text>
      </g>
    </g>
    <g
       id="g68">
      <g
         id="g70"
         clip-path="url(#clipPath74)">
        <path
           d="M 194.90858,84.322563 V 303.85033"
           style="fill:none;stroke:#cccccc;stroke-width:1;stroke-linecap:round;stroke-linejoin:round;stroke-miterlimit:10;stroke-dasharray:none;stroke-opacity:1"
           id="path76" />
      </g>
    </g>
    <g
       id="g78">
      <g
         id="g80"
         transform="rotate(30,9.7399469,261.54201)">
        <text
           xml:space="preserve"
           transform="scale(1,-1)"
           style="font-variant:normal;font-weight:normal;font-size:14.4px;font-family:'DejaVu Sans';-inkscape-font-specification:DejaVuSans;writing-mode:lr-tb;fill:#262626;fill-opacity:1;fill-rule:nonzero;stroke:none"
           id="text84"><tspan
             x="0 12.4272 21.2544 29.7792 34.358398 43.5168 52.675201 61.833599"
             y="0"
             sodipodi:role="line"
             id="tspan82">May 2023</tspan></text>
      </g>
    </g>
    <g
       id="g86">
      <g
         id="g88"
         clip-path="url(#clipPath92)">
        <path
           d="M 247.41254,84.322563 V 303.85033"
           style="fill:none;stroke:#cccccc;stroke-width:1;stroke-linecap:round;stroke-linejoin:round;stroke-miterlimit:10;stroke-dasharray:none;stroke-opacity:1"
           id="path94" />
      </g>
    </g>
    <g
       id="g96">
      <g
         id="g98"
         transform="rotate(30,32.351298,373.10271)">
        <text
           xml:space="preserve"
           transform="scale(1,-1)"
           style="font-variant:normal;font-weight:normal;font-size:14.4px;font-family:'DejaVu Sans';-inkscape-font-specification:DejaVuSans;writing-mode:lr-tb;fill:#262626;fill-opacity:1;fill-rule:nonzero;stroke:none"
           id="text102"><tspan
             x="0 4.2480001 13.3776 22.5072 27.086399 36.244801 45.403198 54.5616"
             y="0"
             sodipodi:role="line"
             id="tspan100">Jun 2023</tspan></text>
      </g>
    </g>
    <g
       id="g104">
      <g
         id="g106"
         clip-path="url(#clipPath110)">
        <path
           d="M 298.22281,84.322563 V 303.85033"
           style="fill:none;stroke:#cccccc;stroke-width:1;stroke-linecap:round;stroke-linejoin:round;stroke-miterlimit:10;stroke-dasharray:none;stroke-opacity:1"
           id="path112" />
      </g>
    </g>
    <g
       id="g114">
      <g
         id="g116"
         transform="rotate(30,55.201749,477.4502)">
        <text
           xml:space="preserve"
           transform="scale(1,-1)"
           style="font-variant:normal;font-weight:normal;font-size:14.4px;font-family:'DejaVu Sans';-inkscape-font-specification:DejaVuSans;writing-mode:lr-tb;fill:#262626;fill-opacity:1;fill-rule:nonzero;stroke:none"
           id="text120"><tspan
             x="0 4.2480001 13.3776 17.3808 21.959999 31.118401 40.276798 49.4352"
             y="0"
             sodipodi:role="line"
             id="tspan118">Jul 2023</tspan></text>
      </g>
    </g>
    <g
       id="g122">
      <g
         id="g124"
         clip-path="url(#clipPath128)">
        <path
           d="M 350.72677,84.322563 V 303.85033"
           style="fill:none;stroke:#cccccc;stroke-width:1;stroke-linecap:round;stroke-linejoin:round;stroke-miterlimit:10;stroke-dasharray:none;stroke-opacity:1"
           id="path130" />
      </g>
    </g>
    <g
       id="g132">
      <g
         id="g134"
         transform="rotate(30,86.8131,555.42245)">
        <text
           xml:space="preserve"
           transform="scale(1,-1)"
           style="font-variant:normal;font-weight:normal;font-size:14.4px;font-family:'DejaVu Sans';-inkscape-font-specification:DejaVuSans;writing-mode:lr-tb;fill:#262626;fill-opacity:1;fill-rule:nonzero;stroke:none"
           id="text138"><tspan
             x="0 9.8495998 18.9792 28.123199 32.7024 41.860802 51.019199 60.177601"
             y="0"
             sodipodi:role="line"
             id="tspan136">Aug 2023</tspan></text>
      </g>
    </g>
    <g
       id="g140">
      <g
         id="g142"
         clip-path="url(#clipPath146)">
        <path
           d="M 403.23072,84.322563 V 303.85033"
           style="fill:none;stroke:#cccccc;stroke-width:1;stroke-linecap:round;stroke-linejoin:round;stroke-miterlimit:10;stroke-dasharray:none;stroke-opacity:1"
           id="path148" />
      </g>
    </g>
    <g
       id="g150">
      <g
         id="g152"
         transform="rotate(30,112.5807,655.20388)">
        <text
           xml:space="preserve"
           transform="scale(1,-1)"
           style="font-variant:normal;font-weight:normal;font-size:14.4px;font-family:'DejaVu Sans';-inkscape-font-specification:DejaVuSans;writing-mode:lr-tb;fill:#262626;fill-opacity:1;fill-rule:nonzero;stroke:none"
           id="text156"><tspan
             x="0 9.1440001 18 27.143999 31.7232 40.881599 50.040001 59.198399"
             y="0"
             sodipodi:role="line"
             id="tspan154">Sep 2023</tspan></text>
      </g>
      <g
         id="g158"
         transform="translate(227.64219,10.73125)">
        <text
           xml:space="preserve"
           transform="scale(1,-1)"
           style="font-variant:normal;font-weight:normal;font-size:17.28px;font-family:'DejaVu Sans';-inkscape-font-specification:DejaVuSans;writing-mode:lr-tb;fill:#262626;fill-opacity:1;fill-rule:nonzero;stroke:none"
           id="text162"><tspan
             x="0 13.3056 23.898239 30.672001"
             y="0"
             sodipodi:role="line"
             id="tspan160">Date</tspan></text>
      </g>
    </g>
    <g
       id="g164">
      <g
         id="g166"
         clip-path="url(#clipPath170)">
        <path
           d="M 55.434375,84.322563 H 441.08437"
           style="fill:none;stroke:#cccccc;stroke-width:1;stroke-linecap:round;stroke-linejoin:round;stroke-miterlimit:10;stroke-dasharray:none;stroke-opacity:1"
           id="path172" />
      </g>
    </g>
    <g
       id="g174">
      <g
         id="g176"
         transform="translate(36.79375,79.00225)">
        <text
           xml:space="preserve"
           transform="scale(1,-1)"
           style="font-variant:normal;font-weight:normal;font-size:14.4px;font-family:'DejaVu Sans';-inkscape-font-specification:DejaVuSans;writing-mode:lr-tb;fill:#262626;fill-opacity:1;fill-rule:nonzero;stroke:none"
           id="text180"><tspan
             x="0"
             y="0"
             id="tspan178">0</tspan></text>
      </g>
    </g>
    <g
       id="g182">
      <g
         id="g184"
         clip-path="url(#clipPath188)">
        <path
           d="M 55.434375,130.05751 H 441.08437"
           style="fill:none;stroke:#cccccc;stroke-width:1;stroke-linecap:round;stroke-linejoin:round;stroke-miterlimit:10;stroke-dasharray:none;stroke-opacity:1"
           id="path190" />
      </g>
    </g>
    <g
       id="g192">
      <g
         id="g194"
         transform="translate(36.79375,124.7372)">
        <text
           xml:space="preserve"
           transform="scale(1,-1)"
           style="font-variant:normal;font-weight:normal;font-size:14.4px;font-family:'DejaVu Sans';-inkscape-font-specification:DejaVuSans;writing-mode:lr-tb;fill:#262626;fill-opacity:1;fill-rule:nonzero;stroke:none"
           id="text198"><tspan
             x="0"
             y="0"
             id="tspan196">5</tspan></text>
      </g>
    </g>
    <g
       id="g200">
      <g
         id="g202"
         clip-path="url(#clipPath206)">
        <path
           d="M 55.434375,175.79247 H 441.08437"
           style="fill:none;stroke:#cccccc;stroke-width:1;stroke-linecap:round;stroke-linejoin:round;stroke-miterlimit:10;stroke-dasharray:none;stroke-opacity:1"
           id="path208" />
      </g>
    </g>
    <g
       id="g210">
      <g
         id="g212"
         transform="translate(27.653125,170.47216)">
        <text
           xml:space="preserve"
           transform="scale(1,-1)"
           style="font-variant:normal;font-weight:normal;font-size:14.4px;font-family:'DejaVu Sans';-inkscape-font-specification:DejaVuSans;writing-mode:lr-tb;fill:#262626;fill-opacity:1;fill-rule:nonzero;stroke:none"
           id="text216"><tspan
             x="0 9.1583996"
             y="0"
             sodipodi:role="line"
             id="tspan214">10</tspan></text>
      </g>
    </g>
    <g
       id="g218">
      <g
         id="g220"
         clip-path="url(#clipPath224)">
        <path
           d="M 55.434375,221.52742 H 441.08437"
           style="fill:none;stroke:#cccccc;stroke-width:1;stroke-linecap:round;stroke-linejoin:round;stroke-miterlimit:10;stroke-dasharray:none;stroke-opacity:1"
           id="path226" />
      </g>
    </g>
    <g
       id="g228">
      <g
         id="g230"
         transform="translate(27.653125,216.20711)">
        <text
           xml:space="preserve"
           transform="scale(1,-1)"
           style="font-variant:normal;font-weight:normal;font-size:14.4px;font-family:'DejaVu Sans';-inkscape-font-specification:DejaVuSans;writing-mode:lr-tb;fill:#262626;fill-opacity:1;fill-rule:nonzero;stroke:none"
           id="text234"><tspan
             x="0 9.1583996"
             y="0"
             sodipodi:role="line"
             id="tspan232">15</tspan></text>
      </g>
    </g>
    <g
       id="g236">
      <g
         id="g238"
         clip-path="url(#clipPath242)">
        <path
           d="M 55.434375,267.26237 H 441.08437"
           style="fill:none;stroke:#cccccc;stroke-width:1;stroke-linecap:round;stroke-linejoin:round;stroke-miterlimit:10;stroke-dasharray:none;stroke-opacity:1"
           id="path244" />
      </g>
    </g>
    <g
       id="g246">
      <g
         id="g248"
         transform="translate(27.653125,261.94206)">
        <text
           xml:space="preserve"
           transform="scale(1,-1)"
           style="font-variant:normal;font-weight:normal;font-size:14.4px;font-family:'DejaVu Sans';-inkscape-font-specification:DejaVuSans;writing-mode:lr-tb;fill:#262626;fill-opacity:1;fill-rule:nonzero;stroke:none"
           id="text252"><tspan
             x="0 9.1583996"
             y="0"
             sodipodi:role="line"
             id="tspan250">20</tspan></text>
      </g>
      <g
         id="g254"
         transform="rotate(90,-69.658068,89.779943)">
        <text
           xml:space="preserve"
           transform="scale(1,-1)"
           style="font-variant:normal;font-weight:normal;font-size:17.28px;font-family:'DejaVu Sans';-inkscape-font-specification:DejaVuSans;writing-mode:lr-tb;fill:#262626;fill-opacity:1;fill-rule:nonzero;stroke:none"
           id="text258"><tspan
             x="0 12.92544 23.88096 40.711681 51.684479 62.31168"
             y="0"
             sodipodi:role="line"
             id="tspan256">Number</tspan></text>
      </g>
    </g>
    <g
       id="g260">
      <g
         id="g262"
         clip-path="url(#clipPath266)">
        <path
           d="m 72.96392,93.469553 h 5.081028 l 10.162055,45.734957 h 1.693676 l 1.693676,-9.147 1.693676,9.147 h 1.693676 l 5.081023,9.14699 3.38736,-9.14699 1.69367,9.14699 1.69368,-9.14699 h 5.08103 l 1.69367,-9.147 1.69368,-36.587957 3.38735,9.146987 5.08103,45.73496 h 1.69367 l 1.69368,-9.14699 1.69368,9.14699 1.69367,-9.14699 h 6.7747 l 1.69368,-18.29398 h 1.69368 l 1.69367,9.14698 5.08103,9.147 h 1.69367 l 1.69368,-18.29398 h 1.69368 l 1.69367,-18.29399 5.08103,54.88195 1.69368,-9.14699 1.69367,-27.44097 1.69368,9.14698 h 1.69367 l 5.08103,-36.587957 1.69368,36.587957 3.38735,18.29399 h 1.69368 l 5.08102,-9.14699 1.69368,-27.44098 1.69367,18.29398 1.69368,9.147 1.69368,-9.147 5.08102,-9.14698 h 5.08103 l 1.69368,9.14698 5.08103,-9.14698 1.69367,27.44097 h 1.69368 l 1.69367,-9.14699 1.69368,9.14699 h 5.08103 l 1.69367,9.14699 1.69368,-64.028937 3.38735,27.440977 5.08103,18.29398 1.69367,-36.58797 1.69368,45.73496 1.69368,-27.44097 10.16205,54.88194 1.69368,-18.29398 1.69367,-27.44098 5.08103,27.44098 h 1.69368 l 1.69367,27.44097 1.69368,-18.29398 1.69367,18.29398 5.08103,-36.58796 1.69368,64.02893 1.69367,-54.88194 1.69368,18.29398 h 1.69367 l 6.77471,36.58796 1.69367,-18.29398 8.46838,64.02893 h 1.69368 l 1.69368,-18.29398 1.69367,18.29398 1.69368,-18.29398 8.46838,-18.29398 1.69367,18.29398 1.69368,-18.29398 5.08103,54.88194 1.69367,-36.58796 1.69368,-9.14699 1.69367,36.58796 1.69368,-27.44097 5.08103,-9.14699 3.38735,-36.58796 1.69368,18.29398 h 6.7747 l 1.69367,9.14699 h 1.69368 l 1.69368,9.14699 1.69367,-9.14699 6.77471,36.58796 1.69367,-45.73495 1.69368,27.44097 1.69367,-9.14699 5.08103,9.14699 1.69368,18.29398 1.69367,-18.29398 h 1.69368 l 1.69367,-82.32291 5.08103,54.88194 1.69368,27.44097 1.69367,-9.14699 1.69368,-45.73495 6.7747,-18.29398 1.69368,-18.29398 1.69368,27.44097 1.69367,-9.14699 h 1.69368 l 5.08102,18.29398 1.69368,9.14699 1.69368,-9.14699 h 1.69367 l 1.69368,9.14699 6.7747,-9.14699 1.69368,36.58796 1.69367,-36.58796 6.77471,9.14699 1.69367,18.29398 1.69368,-73.17592 v 0"
           style="fill:none;stroke:#4c72b0;stroke-width:2;stroke-linecap:round;stroke-linejoin:round;stroke-miterlimit:10;stroke-dasharray:none;stroke-opacity:1"
           id="path268" />
      </g>
    </g>
    <g
       id="g270">
      <path
         d="M 55.434375,84.322563 V 303.85033"
         style="fill:none;stroke:#cccccc;stroke-width:1.25;stroke-linecap:square;stroke-linejoin:miter;stroke-miterlimit:10;stroke-dasharray:none;stroke-opacity:1"
         id="path272" />
      <path
         d="M 55.434375,84.322563 H 441.08437"
         style="fill:none;stroke:#cccccc;stroke-width:1.25;stroke-linecap:square;stroke-linejoin:miter;stroke-miterlimit:10;stroke-dasharray:none;stroke-opacity:1"
         id="path274" />
      <g
         id="g276"
         transform="translate(16.775,309.85034)">
        <text
           xml:space="preserve"
           transform="scale(1,-1)"
           style="font-variant:normal;font-weight:normal;font-size:20.736px;font-family:'DejaVu Sans';-inkscape-font-specification:DejaVuSans;writing-mode:lr-tb;fill:#262626;fill-opacity:1;fill-rule:nonzero;stroke:none"
           id="text280"><tspan
             x="0 13.489645 26.180077 39.347439 52.037868 60.166382 70.969833 77.563889 90.731247 96.49585 116.69272 129.83934 135.60394 143.73247 156.44363 169.59026 182.3429 195.03333 208.17995 218.9834 224.74802 237.02373 243.61777 258.09149 270.78192 283.92856 292.05707 300.12643 312.81686 318.58148 324.3461 337.09872 350.26608 356.86014 370.0275 382.30322 388.89725 403.08069 416.22729 424.3558 437.04623 449.95776"
             y="0"
             sodipodi:role="line"
             id="tspan278">Robots Simultaneously Controlled by AutoRT</tspan></text>
      </g>
    </g>
  </g>
</svg>
